<svg width="82" height="82" fill="none" xmlns="http://www.w3.org/2000/svg">
                    <path d="M70.9807 15.1708L36.3273 1.86861C27.8838 -1.37253 18.4116 2.84478 15.1705 11.2882L1.86828 45.9416C-1.37286 54.3851 2.84445 63.8573 11.2879 67.0984L45.9413 80.4006C54.3847 83.6418 63.857 79.4245 67.0981 70.981L80.4003 36.3276C83.6414 27.8842 79.4241 18.4119 70.9807 15.1708Z" fill="#E14E1D"/>
                    <path d="M29.5527 10.3774L22.2988 35.8319L50.5082 46.6604L45.5093 56.8536L35.4839 55.8229L27.3595 49.8906L29.3553 42.8797L21.186 39.7438L17.3385 53.2588L32.2322 64.2886L50.7018 66.0658L62.5311 41.9385L32.8665 30.5514L35.3211 21.9308L66.4679 33.8869L70.3214 26.0271L29.5527 10.3774Z" fill="white"/>
                    <path d="M49.9371 18.2023L29.5527 10.3774L22.2988 35.8319L40.4893 42.8145L43.6131 34.6766L32.8665 30.5514L35.3211 21.9308L46.8125 26.342L49.9371 18.2023ZM35.4957 55.8233L35.4839 55.8229L27.3595 49.8906L29.3553 42.8797L21.186 39.7438L17.3385 53.2588L32.2322 64.2886L32.246 64.2898L35.4957 55.8233Z" fill="#EBEBEB"/>
                </svg>