<svg width="168" height="165" viewBox="0 0 168 165" fill="none" xmlns="http://www.w3.org/2000/svg">
                <path d="M91.096 91.6182C96.1896 87.9175 97.3187 80.7883 93.618 75.6947C89.9173 70.601 82.7881 69.4719 77.6945 73.1726C72.6009 76.8733 71.4717 84.0026 75.1724 89.0962C78.8732 94.1898 86.0024 95.3189 91.096 91.6182Z" fill="#035971"/>
                <path d="M108.375 41.7348C106.125 42.3807 103.794 43.0854 101.441 43.9298C100.516 41.6355 99.5097 39.3999 98.4814 37.3041C92.4216 25.3907 85.0944 19.2187 77.8007 20.0681C75.617 20.295 73.6242 21.1248 71.6825 22.5355C66.0194 26.65 61.8757 36.0882 59.7082 48.4167C47.3133 46.6683 37.0566 47.6927 31.3935 51.8072C29.4519 53.2179 28.0468 54.8568 27.1562 56.8635C24.1533 63.6186 27.759 72.4944 37.1579 81.8582C38.8334 83.4838 40.6486 85.1316 42.5447 86.7205C41.0145 88.6975 39.5652 90.6157 38.3144 92.637C31.0231 103.868 29.4011 113.204 33.7508 119.191C38.1004 125.177 47.562 126.461 60.4151 123.056C62.6652 122.41 64.9962 121.705 67.3493 120.861C68.2745 123.155 69.2807 125.391 70.309 127.487C76.3688 139.4 83.696 145.572 90.9897 144.723C93.1734 144.496 95.1662 143.666 97.1079 142.255C102.852 138.082 106.996 128.644 109.082 116.374C121.477 118.123 131.734 117.098 137.397 112.984C139.339 111.573 140.744 109.934 141.634 107.927C144.637 101.172 141.031 92.2964 131.633 82.9326C129.957 81.307 128.142 79.6593 126.246 78.0703C127.776 76.0933 129.225 74.1751 130.476 72.1538C137.767 60.9232 139.389 51.5868 135.04 45.6001C130.69 39.6133 121.309 38.2707 108.375 41.7348ZM78.4744 25.759C83.202 25.2907 88.6843 30.4545 93.4807 39.9484C94.4723 41.8237 95.361 43.8975 96.2275 46.1109C91.3152 48.1965 86.3954 50.7821 81.4092 53.7868C75.8372 51.902 70.4781 50.4804 65.3542 49.3825C67.0501 39.1271 70.1788 30.6736 75.1138 27.0881C76.1655 26.324 77.3127 25.8614 78.4744 25.759ZM104.269 80.3169C104.694 83.9638 104.876 87.787 104.977 91.6689C102.16 94.0865 99.2252 96.3422 96.1509 98.5757C92.9958 100.868 89.9436 102.962 86.8548 104.835C83.1941 103.54 79.6951 102.126 76.358 100.595C72.8811 99.0425 69.4264 97.3499 66.1923 95.6206C65.5471 92.0104 65.0048 88.2017 64.6023 84.4151C64.1776 80.7683 63.9956 76.9451 63.8945 73.0631C66.7116 70.6456 69.6461 68.3899 72.7204 66.1563C75.8756 63.8639 78.9277 61.77 82.0165 59.8967C85.6773 61.1924 89.1762 62.6057 92.5134 64.1366C95.9902 65.6895 99.4449 67.3822 102.679 69.1115C103.243 72.7805 103.808 76.4494 104.269 80.3169ZM109.044 72.7685C112.315 74.7184 115.284 76.7637 118.173 78.8678C115.892 81.5135 113.332 84.1149 110.552 86.753C110.406 84.5106 110.282 82.1284 109.938 79.7829C109.674 77.3786 109.33 75.0331 109.044 72.7685ZM104.262 109.74C100.792 109.047 97.2859 108.134 93.8015 107.081C95.721 105.81 97.6406 104.539 99.5013 103.187C101.362 101.835 103.164 100.402 104.966 98.9696C104.891 102.609 104.676 106.226 104.262 109.74ZM80.3979 108.538C77.0297 110.367 73.7646 111.997 70.5437 113.349C69.4939 110.032 68.4075 106.495 67.5638 102.782C69.6292 103.754 71.7535 104.806 73.8999 105.719C76.1639 106.793 78.2515 107.625 80.3979 108.538ZM59.7462 92.0223C56.4754 90.0724 53.5062 88.0271 50.6178 85.923C52.8982 83.2773 55.458 80.6759 58.2384 78.0378C58.3843 80.2803 58.5082 82.6624 58.8526 85.0079C59.1161 87.4122 59.4606 89.7577 59.7462 92.0223ZM64.5281 55.0506C67.998 55.7434 71.5045 56.6567 74.9889 57.7098C73.0694 58.9808 71.1499 60.2518 69.2891 61.6037C67.4284 62.9556 65.6264 64.3884 63.8245 65.8212C63.8997 62.1819 64.1147 58.5648 64.5281 55.0506ZM94.8317 58.9912L88.3926 56.2531C91.7607 54.424 95.0259 52.7934 98.2467 51.4421C99.2965 54.7585 100.383 58.2954 101.227 62.0086C99.1024 60.9562 96.9781 59.9039 94.8317 58.9912ZM41.2182 77.9194C33.6711 70.4239 30.4541 63.6143 32.3604 59.2627C32.8168 58.1896 33.6112 57.2415 34.663 56.4774C39.5171 52.9507 48.4648 52.5065 58.8821 54.0848C58.2841 59.2163 58.0388 64.8332 58.1095 70.715C53.7111 74.5287 49.7905 78.4896 46.2302 82.436C44.3929 80.9279 42.7761 79.3832 41.2182 77.9194ZM38.2812 115.899C35.5187 112.097 37.1911 104.701 43.1065 95.8301C44.2543 94.0073 45.6227 92.1479 47.0499 90.3693C51.2832 93.474 56.0165 96.5862 61.0734 99.4633C62.247 105.162 63.6046 110.603 65.33 115.53C51.8144 120.405 41.5728 120.43 38.2812 115.899ZM90.316 139.032C85.5884 139.5 80.1062 134.336 75.3097 124.842C74.3181 122.967 73.4295 120.893 72.563 118.68C77.4752 116.594 82.395 114.009 87.3812 111.004C92.9533 112.889 98.3123 114.31 103.436 115.408C101.74 125.664 98.6116 134.117 93.6766 137.703C92.6249 138.467 91.4777 138.929 90.316 139.032ZM127.572 86.8714C135.119 94.3669 138.336 101.177 136.43 105.528C135.974 106.601 135.179 107.549 134.127 108.313C129.273 111.84 120.326 112.284 109.908 110.706C110.506 105.574 110.752 99.9576 110.681 94.0758C115.079 90.2622 119 86.3012 122.56 82.3548C124.398 83.8629 126.014 85.4076 127.572 86.8714ZM125.684 68.9607C124.536 70.7835 123.168 72.6429 121.741 74.4215C117.507 71.3168 112.774 68.2046 107.717 65.3275C106.543 59.629 105.186 54.1878 103.46 49.261C116.976 44.3857 127.218 44.3612 130.509 48.8917C133.272 52.694 131.518 60.1483 125.684 68.9607Z" fill="#035971"/>
            </svg>